<?xml version="1.0" standalone="no"?>
<!DOCTYPE svg PUBLIC "-//W3C//DTD SVG 20010904//EN"
 "http://www.w3.org/TR/2001/REC-SVG-20010904/DTD/svg10.dtd">
<svg version="1.0" xmlns="http://www.w3.org/2000/svg"
 width="500.000000pt" height="500.000000pt" viewBox="0 0 500.000000 500.000000"
 preserveAspectRatio="xMidYMid meet">

<g transform="translate(0.000000,500.000000) scale(0.100000,-0.100000)"
fill="#000000" stroke="none">
<path d="M2358 3923 c7 -3 16 -2 19 1 4 3 -2 6 -13 5 -11 0 -14 -3 -6 -6z"/>
<path d="M2578 3923 c7 -3 16 -2 19 1 4 3 -2 6 -13 5 -11 0 -14 -3 -6 -6z"/>
<path d="M2268 3913 c12 -2 30 -2 40 0 9 3 -1 5 -23 4 -22 0 -30 -2 -17 -4z"/>
<path d="M2683 3913 c9 -2 25 -2 35 0 9 3 1 5 -18 5 -19 0 -27 -2 -17 -5z"/>
<path d="M2208 3903 c7 -3 16 -2 19 1 4 3 -2 6 -13 5 -11 0 -14 -3 -6 -6z"/>
<path d="M2304 3885 c16 -9 32 -13 35 -10 8 9 -21 25 -44 25 -16 0 -14 -3 9
-15z"/>
<path d="M2098 3873 c6 -2 18 -2 25 0 6 3 1 5 -13 5 -14 0 -19 -2 -12 -5z"/>
<path d="M2255 3870 c-29 -7 -29 -8 -5 -10 14 -2 36 -3 50 -2 l25 1 -23 -11
c-18 -9 -34 -9 -68 0 -54 15 -78 15 -44 0 14 -6 20 -12 13 -15 -7 -2 -20 0
-30 6 -12 6 -25 6 -34 0 -10 -6 -11 -9 -1 -9 7 0 10 -5 7 -10 -4 -6 -11 -7
-17 -4 -6 4 -15 0 -20 -7 -8 -11 -9 -10 -4 4 6 20 5 20 -28 7 -18 -6 -26 -17
-26 -32 0 -13 -9 -29 -20 -36 -17 -10 -22 -9 -32 8 -17 26 -28 25 -28 -2 0
-20 -5 -23 -42 -22 -56 0 -66 -6 -37 -23 22 -13 21 -14 -25 -10 -27 3 -43 2
-37 -2 17 -11 -25 -61 -50 -61 -11 0 -17 -4 -14 -10 3 -5 1 -10 -5 -10 -6 0
-8 -4 -5 -10 3 -5 0 -7 -9 -4 -8 3 -13 13 -10 22 2 9 -3 2 -11 -15 -8 -18 -22
-33 -29 -33 -8 0 -22 -10 -30 -22 -19 -26 -8 -49 10 -23 8 10 17 16 20 12 9
-9 -22 -37 -41 -37 -23 0 -43 -22 -37 -42 6 -23 -14 -24 -22 -1 -6 15 -13 11
-41 -22 -19 -22 -34 -46 -35 -53 0 -7 -4 -11 -8 -8 -4 2 -9 -5 -9 -17 -1 -12
-7 -23 -13 -25 -5 -2 -8 -7 -5 -12 3 -4 -2 -14 -11 -21 -13 -10 -17 -10 -25 2
-6 10 -9 5 -9 -18 0 -18 5 -33 11 -33 8 0 8 -4 -1 -14 -6 -8 -17 -14 -23 -12
-7 1 -9 1 -4 -1 4 -3 7 -9 7 -14 0 -6 -4 -7 -10 -4 -6 4 -7 -6 -3 -26 4 -22 3
-30 -5 -25 -15 9 -46 -39 -39 -63 3 -12 -1 -22 -10 -25 -8 -4 -13 -13 -9 -21
3 -8 1 -15 -4 -15 -6 0 -10 -5 -10 -11 0 -7 -8 -18 -17 -25 -12 -9 -14 -13 -5
-14 9 0 11 -7 7 -20 -3 -11 -3 -25 0 -30 9 -15 35 8 29 25 -8 20 17 31 30 13
13 -18 72 -17 68 1 -4 19 49 33 101 26 31 -5 53 -3 62 5 8 6 19 9 25 5 5 -3
10 1 10 9 0 10 9 16 21 16 14 0 19 5 16 14 -3 8 1 22 8 33 8 10 15 30 15 46 0
16 6 27 13 27 21 0 40 49 26 66 -8 9 -8 14 -1 14 6 0 14 -4 17 -10 9 -15 25
-12 25 6 0 8 -4 13 -9 9 -5 -3 -12 -1 -16 5 -4 6 -11 7 -17 4 -6 -4 -8 -2 -4
4 4 7 17 8 39 1 41 -12 41 -11 30 4 -5 6 -10 23 -11 36 -1 18 2 21 11 12 17
-17 34 -13 40 9 3 11 1 20 -4 20 -5 0 -9 5 -9 11 0 8 4 8 14 0 10 -8 16 -8 25
2 6 8 8 16 5 20 -3 3 7 14 23 23 15 10 32 24 36 31 4 7 24 13 44 13 22 0 41 6
49 18 10 14 15 15 25 5 7 -7 17 -13 23 -13 5 0 2 6 -8 13 -15 11 -12 15 35 35
28 13 58 21 65 18 8 -3 14 -2 14 2 0 5 7 17 16 28 8 10 13 13 9 7 -4 -8 0 -13
10 -13 9 0 14 4 11 8 -3 5 18 9 47 9 74 2 74 2 52 19 -19 15 -19 15 9 10 15
-3 51 -1 78 4 32 6 56 6 67 0 13 -7 10 -9 -14 -10 -37 0 -75 -10 -75 -19 0 -4
40 0 90 8 49 8 87 17 85 22 -5 7 10 4 80 -15 11 -3 0 -3 -25 -1 l-45 5 28 -16
c21 -11 36 -13 56 -6 17 6 34 6 44 0 11 -6 24 -4 40 7 22 14 25 14 37 0 7 -9
19 -14 26 -11 7 3 16 1 19 -4 4 -6 -4 -10 -16 -10 -17 0 -19 -3 -10 -14 7 -9
27 -12 56 -10 39 3 45 1 45 -16 0 -17 33 -37 53 -32 4 1 7 -5 7 -13 0 -11 6
-12 23 -6 31 12 47 3 47 -25 0 -13 5 -24 11 -24 8 0 8 -4 0 -14 -9 -11 -6 -12
14 -8 20 3 24 1 19 -12 -5 -14 -2 -16 20 -12 23 4 26 2 22 -21 -4 -19 0 -26
14 -30 12 -3 17 -10 13 -17 -5 -7 -2 -7 8 1 12 10 17 8 28 -8 11 -19 10 -20
-11 -15 l-23 6 23 -11 c12 -7 22 -19 23 -28 0 -10 2 -12 6 -3 2 6 12 12 21 12
15 0 15 -2 2 -10 -10 -6 -11 -10 -2 -10 6 0 12 -5 12 -11 0 -7 8 -18 17 -25
10 -7 14 -16 10 -20 -4 -5 -12 -2 -17 6 -6 9 -10 10 -10 3 0 -6 8 -19 17 -29
14 -13 18 -14 22 -3 2 7 10 20 18 27 11 11 13 11 13 -1 0 -9 -6 -17 -12 -20
-10 -3 -10 -7 -1 -19 7 -8 10 -18 6 -21 -3 -4 2 -7 12 -7 17 0 17 -1 1 -19
-13 -14 -14 -21 -5 -27 8 -4 10 -3 5 4 -4 7 -2 12 3 12 6 0 11 -6 11 -14 0
-11 8 -12 37 -5 39 8 58 4 29 -7 -24 -9 -19 -22 8 -20 13 0 22 4 19 9 -10 16
10 6 25 -13 10 -12 28 -22 42 -24 14 -1 40 -10 58 -19 18 -9 40 -13 48 -10 7
3 14 0 14 -6 0 -6 5 -11 11 -11 6 0 9 6 6 14 -3 8 -1 17 6 20 9 3 8 7 -3 15
-8 5 -12 12 -9 15 3 3 17 -6 32 -20 15 -14 27 -21 27 -16 0 5 -7 15 -15 22 -8
7 -15 20 -15 29 0 9 -7 29 -15 45 -8 15 -17 40 -20 53 -2 14 -12 31 -22 38
-14 11 -16 16 -5 26 6 7 12 17 12 23 0 5 -9 0 -21 -13 -16 -17 -18 -25 -9 -36
7 -9 8 -15 0 -20 -5 -3 -10 0 -10 9 0 8 -6 17 -12 19 -10 4 -9 8 2 16 10 7 12
13 4 19 -6 4 -13 15 -17 24 -4 13 -2 15 10 11 13 -5 14 -3 2 18 -8 13 -15 29
-15 34 -1 6 -2 14 -3 19 0 6 -8 1 -16 -10 -14 -18 -14 -17 -5 10 9 23 8 27 -4
23 -9 -4 -19 5 -26 24 -7 17 -18 28 -25 25 -6 -2 -18 0 -26 6 -11 8 -11 9 3 4
22 -7 33 11 18 29 -6 8 -9 19 -5 25 3 5 -3 10 -14 10 -11 0 -24 -7 -29 -16 -8
-15 -10 -15 -15 0 -4 9 -1 16 4 16 6 0 9 9 6 20 -3 10 0 21 7 24 6 3 1 3 -11
0 -18 -4 -23 -1 -23 15 0 16 -6 21 -25 21 -14 0 -25 4 -25 10 0 5 -8 7 -17 3
-10 -3 -15 -3 -11 2 9 9 -16 35 -34 35 -19 0 -37 44 -26 64 11 20 -1 21 -29 1
-19 -14 -22 -13 -33 14 -8 20 -17 27 -29 24 -13 -3 -20 2 -24 17 -5 19 -11 21
-39 16 -18 -3 -27 -3 -20 0 6 3 12 10 12 15 0 6 -5 7 -12 3 -8 -5 -9 -2 -5 9
3 9 2 19 -3 22 -6 4 -10 -1 -10 -9 0 -20 -20 -20 -56 -1 -16 8 -23 15 -16 15
7 0 10 5 7 10 -4 7 -12 7 -25 0 -15 -8 -20 -6 -25 10 -7 22 -21 26 -27 8 -3
-7 -12 -9 -22 -5 -9 4 -15 11 -11 16 9 16 -32 33 -53 22 -12 -6 -28 -5 -51 5
-18 8 -53 14 -78 14 -25 0 -42 4 -38 9 3 6 -49 10 -131 10 -135 0 -136 0 -161
-27 -13 -15 -23 -20 -20 -12 4 15 -20 40 -38 38 -5 0 -23 -4 -40 -8z m395 -30
c0 -5 -8 -10 -17 -10 -15 0 -16 2 -3 10 19 12 20 12 20 0z m197 -16 c-3 -3
-12 -4 -19 -1 -8 3 -5 6 6 6 11 1 17 -2 13 -5z m-592 -43 c3 -5 1 -12 -4 -15
-5 -3 -11 1 -15 9 -6 16 9 21 19 6z m-118 -7 c-3 -3 -12 -4 -19 -1 -8 3 -5 6
6 6 11 1 17 -2 13 -5z m212 -74 c-9 -5 -28 -6 -45 0 -27 8 -26 8 16 9 32 0 40
-2 29 -9z m304 -27 c-7 -2 -21 -2 -30 0 -10 3 -4 5 12 5 17 0 24 -2 18 -5z
m-826 -37 c-3 -7 0 -19 6 -25 15 -15 2 -14 -22 1 -18 11 -18 13 -3 25 22 16
25 16 19 -1z m573 -26 c0 -5 -2 -10 -4 -10 -3 0 -8 5 -11 10 -3 6 -1 10 4 10
6 0 11 -4 11 -10z m266 -7 c-10 -11 -37 -12 -30 -2 3 5 12 9 21 9 9 0 13 -3 9
-7z m64 -19 c0 -2 -9 -4 -21 -4 -11 0 -18 4 -14 10 5 8 35 3 35 -6z m397 -6
c-3 -8 -6 -5 -6 6 -1 11 2 17 5 13 3 -3 4 -12 1 -19z m103 2 c0 -5 -2 -10 -4
-10 -3 0 -8 5 -11 10 -3 6 -1 10 4 10 6 0 11 -4 11 -10z m-1470 -10 c0 -5 -2
-10 -4 -10 -3 0 -8 5 -11 10 -3 6 -1 10 4 10 6 0 11 -4 11 -10z m307 -46 c-3
-3 -12 -4 -19 -1 -8 3 -5 6 6 6 11 1 17 -2 13 -5z m883 -15 c0 -6 -4 -7 -10
-4 -5 3 -10 11 -10 16 0 6 5 7 10 4 6 -3 10 -11 10 -16z m-1238 -11 c-7 -7
-12 -8 -12 -2 0 14 12 26 19 19 2 -3 -1 -11 -7 -17z m298 18 c0 -3 -4 -8 -10
-11 -5 -3 -10 -1 -10 4 0 6 5 11 10 11 6 0 10 -2 10 -4z m1220 -12 c0 -2 -7
-4 -15 -4 -8 0 -15 4 -15 10 0 5 7 7 15 4 8 -4 15 -8 15 -10z m-1155 -4 c8
-13 -5 -13 -25 0 -13 8 -13 10 2 10 9 0 20 -4 23 -10z m-56 -29 c-13 -11 -26
-18 -28 -16 -6 7 24 34 38 35 7 0 3 -8 -10 -19z m-425 -27 c3 -8 2 -12 -4 -9
-6 3 -10 10 -10 16 0 14 7 11 14 -7z m301 -14 c3 -5 -1 -10 -9 -10 -9 0 -16 5
-16 10 0 6 4 10 9 10 6 0 13 -4 16 -10z m-306 -13 c6 -8 8 -17 4 -20 -9 -10
-41 -8 -47 2 -4 5 4 7 16 3 21 -5 22 -4 9 11 -7 9 -9 17 -3 17 5 0 15 -6 21
-13z m251 -27 c0 -5 -4 -10 -10 -10 -5 0 -10 5 -10 10 0 6 5 10 10 10 6 0 10
-4 10 -10z m1630 -35 c0 -8 -4 -15 -10 -15 -5 0 -10 7 -10 15 0 8 5 15 10 15
6 0 10 -7 10 -15z m-1910 -5 c0 -5 -4 -10 -10 -10 -5 0 -10 5 -10 10 0 6 5 10
10 10 6 0 10 -4 10 -10z m1594 -19 c3 -5 -1 -11 -9 -14 -9 -4 -12 -1 -8 9 6
16 10 17 17 5z m-1426 -56 c-3 -3 -9 2 -12 12 -6 14 -5 15 5 6 7 -7 10 -15 7
-18z m-28 -45 c0 -5 -5 -10 -11 -10 -5 0 -7 5 -4 10 3 6 8 10 11 10 2 0 4 -4
4 -10z m1627 -32 c-3 -8 -6 -5 -6 6 -1 11 2 17 5 13 3 -3 4 -12 1 -19z m253
-92 c0 -17 -32 -15 -38 2 -2 7 6 12 17 12 12 0 21 -6 21 -14z m-2167 -40 c6
-15 -1 -26 -15 -26 -4 0 -8 9 -8 20 0 23 15 27 23 6z m244 0 c-10 -8 -18 -18
-17 -22 1 -5 -3 -10 -9 -12 -6 -2 -11 1 -11 8 0 6 -5 8 -12 4 -9 -5 -9 -3 1 9
7 9 16 15 20 13 4 -3 13 -1 21 5 23 14 27 10 7 -5z m-97 -15 c0 -5 -9 -7 -20
-4 -11 3 -20 7 -20 9 0 2 9 4 20 4 11 0 20 -4 20 -9z m2039 -15 c-9 -8 -79
-14 -79 -7 0 11 74 28 79 18 1 -5 1 -10 0 -11z"/>
<path d="M2858 3873 c6 -2 18 -2 25 0 6 3 1 5 -13 5 -14 0 -19 -2 -12 -5z"/>
<path d="M1998 3833 c7 -3 16 -2 19 1 4 3 -2 6 -13 5 -11 0 -14 -3 -6 -6z"/>
<path d="M2005 3781 c-6 -11 9 -23 19 -14 9 9 7 23 -3 23 -6 0 -12 -4 -16 -9z"/>
<path d="M1642 3607 c-8 -10 -6 -13 7 -13 11 0 17 6 14 13 -3 7 -6 13 -8 13
-1 0 -7 -6 -13 -13z"/>
<path d="M2548 3563 c7 -3 16 -2 19 1 4 3 -2 6 -13 5 -11 0 -14 -3 -6 -6z"/>
<path d="M2750 3544 c0 -15 26 -19 34 -5 3 5 -3 11 -14 14 -13 3 -20 0 -20 -9z"/>
<path d="M2710 3540 c0 -5 5 -10 11 -10 5 0 7 5 4 10 -3 6 -8 10 -11 10 -2 0
-4 -4 -4 -10z"/>
<path d="M1950 3415 c0 -8 5 -15 10 -15 6 0 10 7 10 15 0 8 -4 15 -10 15 -5 0
-10 -7 -10 -15z"/>
<path d="M1920 3390 c0 -6 -4 -9 -9 -5 -5 3 -12 1 -15 -4 -11 -17 14 -23 29
-7 9 9 11 17 5 21 -5 3 -10 1 -10 -5z"/>
<path d="M3495 3370 c3 -5 8 -10 11 -10 2 0 4 5 4 10 0 6 -5 10 -11 10 -5 0
-7 -4 -4 -10z"/>
<path d="M1869 3328 c-12 -23 -12 -23 10 -4 23 21 26 26 11 26 -5 0 -15 -10
-21 -22z"/>
<path d="M1403 3305 c-3 -9 -3 -18 -1 -21 3 -3 8 4 11 16 6 23 -1 27 -10 5z"/>
<path d="M1286 3045 c-3 -9 -6 -24 -5 -33 0 -9 5 -4 10 12 9 32 6 48 -5 21z"/>
<path d="M1365 2950 c-7 -11 2 -30 15 -30 4 0 10 6 13 14 6 16 -19 30 -28 16z"/>
<path d="M3665 2940 c-10 -11 -13 -20 -7 -20 6 0 16 9 22 20 6 11 9 20 7 20
-2 0 -12 -9 -22 -20z"/>
<path d="M1284 2918 c-4 -7 -4 -10 1 -6 4 4 14 3 22 -4 11 -8 12 -7 7 6 -7 19
-20 21 -30 4z"/>
<path d="M3631 2073 c-19 -21 -1 -32 28 -17 22 11 22 13 5 22 -14 7 -23 6 -33
-5z"/>
<path d="M3594 2067 c-6 -7 -22 -20 -34 -30 -21 -18 -22 -18 -36 0 -12 16 -13
16 -8 1 3 -10 -1 -24 -9 -33 -20 -20 -27 -19 -27 3 -1 15 -2 16 -13 1 -7 -9
-23 -16 -37 -15 -16 1 -24 -4 -22 -12 1 -8 -2 -11 -8 -7 -5 3 -10 3 -10 -2 0
-4 -11 -9 -25 -9 -14 -1 -22 2 -19 7 3 5 -2 6 -10 3 -8 -3 -12 -12 -9 -20 6
-17 -18 -19 -35 -2 -9 9 -12 8 -12 -5 0 -12 8 -17 30 -17 20 0 30 -5 30 -15 0
-18 -16 -20 -24 -2 -5 10 -7 10 -12 0 -3 -7 -14 -13 -24 -13 -10 0 -21 -7 -24
-16 -7 -18 1 -37 13 -29 5 2 13 -7 19 -20 10 -22 9 -25 -8 -25 -11 0 -20 7
-20 15 0 9 -8 14 -20 12 -25 -4 -30 -9 -35 -38 -3 -12 -11 -27 -19 -31 -8 -5
-23 -16 -32 -26 -10 -9 -22 -17 -28 -17 -6 0 -10 -8 -8 -18 2 -11 -4 -17 -16
-17 -11 0 -23 -7 -26 -16 -9 -22 -8 -24 10 -24 8 0 12 4 9 10 -3 6 1 7 9 4 25
-10 7 -24 -26 -22 -18 1 -33 -3 -36 -10 -2 -6 -16 -12 -30 -13 -15 0 -36 -4
-46 -8 -18 -7 -18 -8 -3 -14 23 -9 21 -24 -3 -30 -11 -3 -18 -1 -14 4 8 13
-10 11 -25 -3 -11 -11 -12 -10 -6 2 8 13 7 13 -11 0 -10 -8 -25 -21 -32 -27
-7 -7 -23 -14 -35 -15 -25 -1 -33 -3 -63 -13 -15 -5 -20 -13 -17 -29 3 -15 -1
-25 -11 -29 -10 -4 -16 -1 -16 8 0 18 -5 18 -90 5 -93 -15 -159 -17 -163 -7
-1 5 -24 10 -50 11 -25 1 -41 -2 -34 -6 7 -4 -8 -8 -33 -7 l-45 0 30 13 c28
12 23 13 -53 11 -99 -3 -138 5 -134 28 2 12 -8 18 -38 23 -22 4 -40 12 -40 18
0 23 -22 36 -43 24 -14 -7 -22 -7 -27 2 -5 7 -15 10 -24 7 -9 -4 -16 -2 -16 2
0 17 25 18 43 3 10 -9 17 -11 17 -4 0 6 -9 16 -19 21 -15 8 -27 5 -57 -15 -22
-15 -32 -19 -24 -9 19 23 20 53 1 68 -12 10 -13 9 -6 -3 4 -8 -8 2 -27 23 -20
20 -44 37 -54 37 -14 0 -15 3 -6 12 9 9 6 14 -11 23 -16 8 -21 19 -19 37 1 15
-3 30 -9 34 -8 4 -9 -1 -5 -17 6 -20 5 -22 -6 -9 -7 8 -19 15 -27 15 -8 0 -16
7 -18 15 -4 13 -3 13 6 0 5 -8 13 -12 16 -8 10 9 -13 46 -35 58 -17 9 -18 15
-9 31 8 16 7 20 -5 17 -8 -2 -22 6 -30 17 -19 26 -36 11 -53 -47 -9 -32 -9
-44 0 -50 6 -4 8 -10 4 -15 -10 -9 -27 16 -27 39 0 9 5 20 10 23 8 5 7 11 -1
21 -8 10 -8 14 0 14 6 0 11 7 11 15 0 8 5 15 10 15 6 0 10 4 10 9 0 4 -11 7
-25 6 -14 -2 -25 1 -25 7 0 6 -7 8 -15 5 -8 -4 -17 -2 -20 3 -4 6 -11 10 -16
10 -6 0 -8 -4 -4 -9 3 -5 1 -13 -5 -16 -6 -4 -10 -3 -9 2 4 24 -2 34 -20 28
-11 -3 -25 1 -34 10 -9 8 -21 15 -27 15 -7 0 -10 7 -7 14 4 10 1 13 -8 10 -8
-3 -11 -12 -8 -20 9 -24 -13 -15 -27 11 -7 14 -18 21 -24 17 -6 -3 -19 -5 -28
-4 -13 2 -18 -3 -17 -20 1 -17 3 -18 6 -5 2 9 8 15 13 12 5 -3 7 -12 3 -20 -3
-8 0 -15 5 -15 7 0 8 -11 1 -32 -12 -44 -12 -48 7 -48 10 0 14 -6 11 -15 -7
-18 9 -30 19 -14 12 21 25 -14 18 -53 -4 -30 -2 -39 10 -44 10 -4 14 -13 11
-24 -3 -9 1 -23 10 -30 8 -7 15 -21 15 -31 0 -12 5 -16 14 -13 8 3 17 0 21 -5
3 -6 11 -9 16 -5 6 3 10 0 8 -7 -4 -32 1 -50 13 -43 8 5 9 2 5 -11 -6 -15 -3
-17 21 -12 23 5 28 2 29 -14 1 -11 -2 -17 -8 -14 -5 4 -9 -1 -9 -10 0 -11 5
-15 15 -11 8 3 15 1 15 -5 0 -6 5 -7 10 -4 6 3 10 -3 10 -15 0 -16 4 -20 19
-15 14 4 20 -1 25 -20 4 -14 4 -31 0 -36 -4 -7 0 -7 14 0 35 19 46 13 28 -14
-9 -14 -12 -25 -6 -25 5 0 10 5 10 10 0 6 5 10 11 10 6 0 8 -9 4 -21 -4 -13
-3 -19 2 -16 6 4 25 -9 43 -28 27 -28 38 -33 61 -28 24 5 30 1 39 -22 8 -22 8
-31 -2 -37 -12 -9 -1 -7 53 8 9 3 24 -2 32 -11 9 -8 21 -15 27 -15 6 0 14 -10
19 -22 l8 -23 7 23 c9 27 26 29 26 3 0 -23 16 -36 25 -21 9 14 25 12 22 -2 -1
-8 9 -13 25 -12 15 0 25 -4 22 -8 -3 -4 8 -8 25 -8 18 0 34 -7 40 -18 8 -12
13 -14 18 -5 9 13 103 -2 103 -17 0 -7 23 -14 98 -27 19 -3 38 0 47 7 11 9 15
10 15 1 0 -9 20 -11 65 -9 36 2 65 6 65 10 0 4 13 5 28 2 19 -4 32 -1 41 10 8
9 23 17 35 17 17 1 17 2 4 6 -10 2 -18 9 -18 14 0 6 9 8 19 4 11 -3 29 -8 41
-10 12 -2 31 -7 43 -9 12 -3 16 -3 10 0 -7 3 -13 10 -13 15 0 6 4 8 9 4 5 -3
12 -1 16 5 3 5 17 10 30 10 13 0 27 5 31 11 3 6 17 8 30 5 17 -5 24 -2 24 9 0
8 7 15 16 15 9 0 24 8 33 19 19 21 68 40 56 21 -6 -9 -3 -9 14 0 17 9 20 14
11 25 -7 9 -7 15 -1 19 6 4 15 -3 22 -16 l12 -22 24 28 c13 15 30 25 38 23 7
-3 19 0 25 8 8 10 8 14 -2 18 -7 2 -10 8 -6 12 4 4 14 3 21 -4 11 -9 17 -8 27
4 10 12 9 16 -4 21 -12 5 -14 10 -6 19 5 6 6 16 2 21 -4 4 1 2 10 -5 10 -7 24
-11 32 -8 10 4 13 1 9 -9 -11 -29 7 -13 23 21 13 29 21 34 38 29 17 -5 19 -4
9 7 -16 16 -17 29 -3 29 6 0 21 9 33 21 12 11 18 20 12 19 -24 -5 -27 1 -10
20 10 11 31 20 46 20 19 0 32 7 40 23 11 20 11 21 -4 9 -22 -19 -17 9 6 32 15
15 22 43 18 69 -2 14 22 7 36 -10 7 -10 12 -13 11 -8 -3 15 13 59 26 67 6 4 7
11 2 15 -4 4 -16 -3 -27 -16 -10 -13 -19 -20 -19 -15 0 4 16 24 35 44 24 25
34 42 29 53 -3 9 -10 17 -14 17 -5 0 -3 11 3 24 12 25 50 25 40 0 -3 -10 0
-12 10 -8 8 3 15 15 15 27 0 12 3 34 6 49 3 15 2 29 -3 33 -6 3 -8 12 -4 20 3
10 -1 15 -12 15 -12 0 -15 5 -10 20 7 23 5 24 -11 7z m-2194 -71 c0 -5 -7 -1
-15 10 -8 10 -14 24 -14 29 0 6 6 1 14 -9 8 -11 15 -24 15 -30z m2198 19 c9 3
13 3 9 -1 -4 -4 -1 -14 6 -22 10 -13 -11 -3 -52 24 -1 2 1 9 5 16 7 10 9 9 12
-5 3 -12 9 -16 20 -12z m-2218 -71 c0 -8 -5 -12 -10 -9 -6 4 -8 11 -5 16 9 14
15 11 15 -7z m294 -25 c-3 -5 -10 -7 -15 -3 -5 3 -7 10 -3 15 3 5 10 7 15 3 5
-3 7 -10 3 -15z m46 -55 c0 -3 -6 -12 -14 -19 -12 -12 -15 -12 -20 1 -3 8 -2
12 4 9 6 -3 10 -1 10 4 0 6 5 11 10 11 6 0 10 -3 10 -6z m-246 -98 c-4 -10 3
-12 23 -10 15 2 22 1 16 -2 -16 -7 -17 -44 -2 -44 5 0 7 -5 3 -11 -4 -7 -17 1
-35 21 -32 35 -31 32 -23 54 3 9 10 14 15 11 4 -3 6 -12 3 -19z m1932 -53
c-10 -10 -19 5 -10 18 6 11 8 11 12 0 2 -7 1 -15 -2 -18z m-1826 -23 c0 -5 -4
-10 -10 -10 -5 0 -10 5 -10 10 0 6 5 10 10 10 6 0 10 -4 10 -10z m280 -70 c0
-5 -4 -10 -10 -10 -5 0 -10 5 -10 10 0 6 5 10 10 10 6 0 10 -4 10 -10z m1160
-20 c0 -5 -4 -10 -10 -10 -5 0 -10 5 -10 10 0 6 5 10 10 10 6 0 10 -4 10 -10z
m-940 -95 c0 -16 -9 -19 -34 -9 -24 9 -19 19 9 22 16 1 25 -3 25 -13z m1130 1
c0 -8 -4 -17 -9 -21 -12 -7 -24 12 -16 25 9 15 25 12 25 -4z m95 5 c3 -5 1
-12 -5 -16 -6 -4 -8 -12 -4 -18 3 -7 -2 -3 -10 7 -9 11 -16 23 -16 28 0 11 28
10 35 -1z m-501 -71 c-10 -10 -17 -11 -25 -3 -16 16 10 44 27 29 10 -9 9 -14
-2 -26z m-982 6 c10 -7 15 -16 12 -19 -7 -7 -44 14 -44 25 0 12 13 9 32 -6z
m-34 -24 c5 -16 -10 -15 -33 1 -17 13 -16 14 5 12 13 -1 26 -7 28 -13z m42
-40 c0 -15 -11 -21 -27 -15 -12 5 -12 7 -1 14 17 11 28 11 28 1z m73 -42 c3
-11 1 -23 -4 -26 -5 -3 -9 6 -9 20 0 31 6 34 13 6z m42 0 c-3 -5 -10 -10 -16
-10 -5 0 -9 5 -9 10 0 6 7 10 16 10 8 0 12 -4 9 -10z m1015 -30 c0 -5 -7 -10
-16 -10 -10 0 -14 -6 -10 -15 3 -8 1 -15 -3 -15 -5 0 -11 7 -15 15 -3 8 -1 15
5 15 6 0 7 5 4 10 -3 6 3 10 14 10 12 0 21 -4 21 -10z m-825 -40 c3 -5 -3 -10
-15 -10 -12 0 -18 5 -15 10 3 6 10 10 15 10 5 0 12 -4 15 -10z m662 -6 c-3 -3
-12 -4 -19 -1 -8 3 -5 6 6 6 11 1 17 -2 13 -5z m33 -34 c0 -5 -7 -10 -16 -10
-8 0 -12 5 -9 10 3 6 10 10 16 10 5 0 9 -4 9 -10z m-610 -9 c23 -6 23 -8 6
-14 -11 -4 -22 -3 -25 2 -3 5 -17 11 -31 14 l-25 4 25 1 c14 0 36 -3 50 -7z
m323 -68 c-7 -2 -21 -2 -30 0 -10 3 -4 5 12 5 17 0 24 -2 18 -5z"/>
<path d="M1282 2035 c0 -11 3 -29 8 -40 11 -25 11 1 0 35 -6 20 -8 21 -8 5z"/>
<path d="M3640 2020 c0 -5 5 -10 10 -10 6 0 10 5 10 10 0 6 -4 10 -10 10 -5 0
-10 -4 -10 -10z"/>
<path d="M3570 1890 c0 -5 5 -10 11 -10 5 0 7 5 4 10 -3 6 -8 10 -11 10 -2 0
-4 -4 -4 -10z"/>
<path d="M1392 1860 c-17 -27 -15 -35 4 -16 8 9 14 21 12 26 -2 6 -9 1 -16
-10z"/>
<path d="M3586 1815 c-3 -8 -1 -15 4 -15 6 0 10 7 10 15 0 8 -2 15 -4 15 -2 0
-6 -7 -10 -15z"/>
<path d="M1910 1680 c0 -5 5 -10 10 -10 6 0 10 5 10 10 0 6 -4 10 -10 10 -5 0
-10 -4 -10 -10z"/>
<path d="M3401 1564 c0 -11 3 -14 6 -6 3 7 2 16 -1 19 -3 4 -6 -2 -5 -13z"/>
<path d="M2175 1510 c-4 -6 7 -10 27 -9 27 0 30 2 13 9 -27 12 -33 12 -40 0z"/>
<path d="M1828 1333 c7 -3 16 -2 19 1 4 3 -2 6 -13 5 -11 0 -14 -3 -6 -6z"/>
<path d="M3050 1270 c0 -5 5 -10 11 -10 5 0 7 5 4 10 -3 6 -8 10 -11 10 -2 0
-4 -4 -4 -10z"/>
<path d="M2118 1163 c7 -3 16 -2 19 1 4 3 -2 6 -13 5 -11 0 -14 -3 -6 -6z"/>
<path d="M2298 1123 c6 -2 18 -2 25 0 6 3 1 5 -13 5 -14 0 -19 -2 -12 -5z"/>
</g>
</svg>
