<?xml version="1.0" standalone="no"?>
<!DOCTYPE svg PUBLIC "-//W3C//DTD SVG 20010904//EN"
 "http://www.w3.org/TR/2001/REC-SVG-20010904/DTD/svg10.dtd">
<svg version="1.0" xmlns="http://www.w3.org/2000/svg"
 width="572.000000pt" height="376.000000pt" viewBox="0 0 572.000000 376.000000"
 preserveAspectRatio="xMidYMid meet">

<g transform="translate(0.000000,376.000000) scale(0.100000,-0.100000)"
fill="#fff" stroke="none">
<path d="M1232 2546 c-158 -40 -277 -213 -258 -376 19 -156 151 -292 300 -307
50 -5 54 -8 60 -36 13 -65 9 -75 -41 -97 -98 -43 -153 -122 -161 -231 -5 -76
14 -131 68 -193 71 -80 198 -109 298 -66 62 27 123 89 147 153 17 46 18 149 1
189 -6 13 8 25 64 58 l71 42 45 -42 c25 -23 62 -48 82 -57 33 -14 112 -18 181
-11 21 3 27 -4 46 -52 21 -54 21 -55 1 -90 -34 -62 -1 -127 70 -137 118 -16
143 164 25 183 -34 5 -38 10 -60 66 l-23 60 35 29 c87 72 114 208 63 313 -83
170 -298 205 -429 70 l-34 -36 -59 31 c-90 46 -86 41 -68 95 12 34 15 71 12
131 l-4 83 70 19 c69 19 72 19 95 1 35 -27 96 -24 126 7 57 56 16 155 -63 155
-49 0 -81 -25 -91 -69 -6 -32 -11 -35 -71 -52 -88 -25 -93 -24 -115 17 -64
119 -238 187 -383 150z m210 -64 c109 -48 170 -140 176 -263 5 -100 -20 -160
-94 -228 -95 -87 -217 -106 -329 -52 -102 49 -160 132 -172 245 -23 219 215
389 419 298z m653 -456 c59 -28 88 -57 111 -111 60 -144 -40 -297 -196 -299
-196 -1 -292 230 -152 367 69 67 153 83 237 43z m-417 -40 c84 -43 85 -45 71
-99 -11 -37 -11 -59 0 -108 14 -70 17 -65 -75 -113 l-55 -29 -37 36 c-44 43
-114 76 -160 77 -35 0 -38 4 -45 66 -5 41 -4 42 37 54 67 20 111 46 157 94 24
25 48 46 52 46 4 0 29 -11 55 -24z m-200 -302 c215 -89 150 -414 -83 -414
-229 0 -298 315 -90 411 49 23 123 24 173 3z"/>
<path d="M1261 2384 c-57 -48 -47 -135 20 -169 65 -34 134 13 134 92 0 38 -5
49 -33 74 -41 36 -80 38 -121 3z"/>
<path d="M1213 2175 c-92 -46 -108 -105 -38 -140 33 -16 60 -20 150 -20 96 0
116 3 153 23 36 19 42 27 37 45 -12 39 -41 71 -89 96 l-47 24 -29 -21 c-28
-21 -28 -21 -53 -2 -14 11 -27 20 -29 20 -2 0 -27 -11 -55 -25z"/>
<path d="M1962 1970 c-15 -14 -22 -33 -22 -59 0 -46 24 -71 68 -71 67 0 96 77
47 125 -29 30 -64 32 -93 5z"/>
<path d="M1935 1816 c-16 -7 -37 -22 -46 -32 -52 -61 -16 -89 116 -89 137 0
179 31 123 92 -34 36 -72 47 -101 29 -22 -15 -26 -15 -37 -1 -15 18 -17 18
-55 1z"/>
<path d="M1369 1648 c-16 -5 -32 -22 -40 -39 -36 -88 83 -152 126 -69 33 64
-21 130 -86 108z"/>
<path d="M1330 1488 c-35 -13 -80 -58 -80 -80 0 -29 58 -48 142 -47 84 1 141
18 146 43 4 21 -31 62 -70 82 -24 13 -31 13 -51 -1 -20 -12 -26 -13 -43 -1
-13 9 -26 11 -44 4z"/>
<path d="M2520 1885 l0 -245 165 0 165 0 0 50 0 49 -112 3 -113 3 -3 193 -2
192 -50 0 -50 0 0 -245z"/>
<path d="M2902 1888 l3 -243 53 -3 52 -3 0 245 0 246 -55 0 -55 0 2 -242z"/>
<path d="M3050 2122 c0 -11 155 -456 164 -471 4 -6 34 -11 67 -11 60 0 60 0
75 37 21 50 154 434 154 444 0 5 -24 9 -54 9 l-55 0 -57 -180 c-32 -99 -59
-178 -62 -175 -2 2 -30 82 -61 177 l-57 173 -57 3 c-31 2 -57 -1 -57 -6z"/>
<path d="M3550 1885 l0 -245 178 2 177 3 3 48 3 47 -125 0 -126 0 0 50 0 49
113 3 112 3 3 48 3 47 -115 0 -116 0 0 45 0 45 120 0 120 0 0 50 0 50 -175 0
-175 0 0 -245z"/>
<path d="M4198 1956 c-3 -154 -5 -176 -22 -195 -19 -20 -58 -27 -90 -15 -8 3
-20 21 -26 40 -11 32 -14 34 -60 34 -27 0 -51 -4 -54 -8 -10 -16 17 -92 43
-119 35 -39 72 -53 133 -53 72 0 128 29 158 83 23 39 25 54 28 225 l4 182 -55
0 -55 0 -4 -174z"/>
<path d="M4362 1888 l3 -243 140 1 c111 1 148 5 173 18 73 38 96 138 45 193
-16 16 -35 32 -43 35 -12 4 -9 11 13 37 31 37 34 74 12 127 -23 57 -74 74
-223 74 l-122 0 2 -242z m239 130 c13 -19 11 -52 -3 -66 -7 -7 -38 -12 -70
-12 l-58 0 0 43 c0 24 3 47 8 51 11 12 114 -1 123 -16z m27 -190 c19 -19 15
-66 -7 -78 -11 -5 -49 -10 -85 -10 l-66 0 0 50 0 50 73 0 c43 0 78 -5 85 -12z"/>
</g>
</svg>
